<!DOCTYPE svg PUBLIC "-//W3C//DTD SVG 1.1//EN" "http://www.w3.org/Graphics/SVG/1.1/DTD/svg11.dtd">

<!-- Uploaded to: SVG Repo, www.svgrepo.com, Transformed by: SVG Repo Mixer Tools -->
<svg fill="#ffffff" height="70px" width="70px" viewBox="-844.8 -844.8 3609.60 3609.60" xmlns="http://www.w3.org/2000/svg" stroke="#ffffff">

<g id="SVGRepo_bgCarrier" stroke-width="0" transform="translate(0,0), scale(1)">

<rect x="-844.8" y="-844.8" width="3609.60" height="3609.60" rx="1804.8" fill="#0096ff" strokewidth="0"/>

</g>

<g id="SVGRepo_tracerCarrier" stroke-linecap="round" stroke-linejoin="round" stroke="#CCCCCC" stroke-width="92.16"/>

<g id="SVGRepo_iconCarrier"> <path d="m1421.141 2.417 91.775 64.262L215.481 1918.962l.595.416-.378.54-92.37-64.678L246.074 1680H0V240h1254.726L1421.141 2.416Zm79.395 278.487V678.89L1920 346.052v1228.01l-419.464-332.951V1680H520.538l76.895-109.78 793.325.001v-556.235l177.995 141.29 241.468 191.548V573.176l-241.468 191.662-177.995 141.29-.001-468.498 109.779-156.726Zm-322.705 68.874H109.779v1220.443h213.19l854.862-1220.443Z" fill-rule="evenodd"/> </g>

</svg>