<!DOCTYPE svg PUBLIC "-//W3C//DTD SVG 1.1//EN" "http://www.w3.org/Graphics/SVG/1.1/DTD/svg11.dtd">
<!-- Uploaded to: SVG Repo, www.svgrepo.com, Transformed by: SVG Repo Mixer Tools -->
<svg width="100px" height="100px" viewBox="-3.04 -3.04 22.08 22.08" xmlns="http://www.w3.org/2000/svg" fill="#ffffff" stroke="#ffffff" stroke-width="0.00016" transform="rotate(0)">
<g id="SVGRepo_bgCarrier" stroke-width="0" transform="translate(0,0), scale(1)">
<rect x="-3.04" y="-3.04" width="22.08" height="22.08" rx="11.04" fill="#dc1818" strokewidth="0"/>
</g>
<g id="SVGRepo_tracerCarrier" stroke-linecap="round" stroke-linejoin="round" stroke="#CCCCCC" stroke-width="0.41600000000000004"/>
<g id="SVGRepo_iconCarrier"> <path d="m 14.234375 11.714844 c -0.382813 0.382812 -1 0.382812 -1.386719 0 l -1.039062 -1.039063 l -1.039063 -1.042969 c -0.386719 -0.382812 -0.386719 -1 0 -1.386718 l 0.492188 -0.492188 c -2.035157 -1.109375 -4.5 -1.109375 -6.535157 0 l 0.492188 0.492188 c 0.386719 0.386718 0.386719 1.003906 0 1.386718 l -1.039062 1.042969 l -1.039063 1.039063 c -0.386719 0.382812 -1.003906 0.382812 -1.386719 0 l -1.042968 -1.039063 c -0.957032 -0.957031 -0.957032 -2.511719 0 -3.46875 l 0.347656 -0.347656 c 3.816406 -3.816406 10.054687 -3.816406 13.871094 0 l 0.347656 0.347656 c 0.957031 0.957031 0.957031 2.511719 0 3.46875 z m 0 0" fill="#f9fafa"/> </g>
</svg>