<!DOCTYPE svg PUBLIC "-//W3C//DTD SVG 1.1//EN" "http://www.w3.org/Graphics/SVG/1.1/DTD/svg11.dtd">

<!-- Uploaded to: SVG Repo, www.svgrepo.com, Transformed by: SVG Repo Mixer Tools -->
<svg width="50px" height="50px" viewBox="-9.84 -9.84 43.68 43.68" fill="none" xmlns="http://www.w3.org/2000/svg" stroke="#000000">

<g id="SVGRepo_bgCarrier" stroke-width="0" transform="translate(0,0), scale(1)">

<rect x="-9.84" y="-9.84" width="43.68" height="43.68" rx="21.84" fill="#0096ff" strokewidth="0"/>

</g>

<g id="SVGRepo_tracerCarrier" stroke-linecap="round" stroke-linejoin="round" stroke="#CCCCCC" stroke-width="0.624"/>

<g id="SVGRepo_iconCarrier"> <path d="M14 19L14 5C14 3.89543 14.8954 3 16 3L17 3C18.1046 3 19 3.89543 19 5L19 19C19 20.1046 18.1046 21 17 21L16 21C14.8954 21 14 20.1046 14 19Z" stroke="#ffffff" stroke-width="1.656" stroke-linecap="round" stroke-linejoin="round"/> <path d="M10 19L10 5C10 3.89543 9.10457 3 8 3L7 3C5.89543 3 5 3.89543 5 5L5 19C5 20.1046 5.89543 21 7 21L8 21C9.10457 21 10 20.1046 10 19Z" stroke="#ffffff" stroke-width="1.656" stroke-linecap="round" stroke-linejoin="round"/> </g>

</svg>