<!DOCTYPE svg PUBLIC "-//W3C//DTD SVG 1.1//EN" "http://www.w3.org/Graphics/SVG/1.1/DTD/svg11.dtd">
<!-- Uploaded to: SVG Repo, www.svgrepo.com, Transformed by: SVG Repo Mixer Tools -->
<svg fill="#ffffff" width="72px" height="72px" viewBox="-806.4 -806.4 3532.80 3532.80" xmlns="http://www.w3.org/2000/svg" stroke="#ffffff" stroke-width="0.019200000000000002">
<g id="SVGRepo_bgCarrier" stroke-width="0" transform="translate(0,0), scale(1)">
<rect x="-806.4" y="-806.4" width="3532.80" height="3532.80" rx="1766.4" fill="#0096ff" strokewidth="0"/>
</g>
<g id="SVGRepo_tracerCarrier" stroke-linecap="round" stroke-linejoin="round" stroke="#CCCCCC" stroke-width="19.2"/>
<g id="SVGRepo_iconCarrier"> <path d="M960 0c529.36 0 960 430.645 960 960 0 529.36-430.64 960-960 960-529.355 0-960-430.64-960-960C0 430.645 430.645 0 960 0Zm0 112.941c-467.125 0-847.059 379.934-847.059 847.059 0 467.12 379.934 847.06 847.059 847.06 467.12 0 847.06-379.94 847.06-847.06 0-467.125-379.94-847.059-847.06-847.059Zm0 313.726c294.55 0 533.33 238.781 533.33 533.333 0 294.55-238.78 533.33-533.33 533.33-294.552 0-533.333-238.78-533.333-533.33 0-294.552 238.781-533.333 533.333-533.333Z" fill-rule="evenodd"/> </g>
</svg>